REM DIRINDEX 1\2,1\3,1\4,1\5,1\6
REM DIRNAME cjc129,folder01,folder02,folder03,folder04,folder05
TITLE ""
FILE "DISC3Track10.mp3" MP3
  TRACK 01 AUDIO
    TITLE "0:"
    INDEX 01 00:00:00
  TRACK 02 AUDIO
    TITLE "3:cjc129_2308"
    INDEX 01 00:00:05
  TRACK 03 AUDIO
    TITLE "0:"
    INDEX 01 00:01:22
  TRACK 04 AUDIO
    TITLE "5:cjc129_2309"
    INDEX 01 00:01:52
  TRACK 05 AUDIO
    TITLE "0:"
    INDEX 01 00:07:47
  TRACK 06 AUDIO
    TITLE "4:cjc129_2310"
    INDEX 01 00:08:40
  TRACK 07 AUDIO
    TITLE "0:"
    INDEX 01 00:09:57
  TRACK 08 AUDIO
    TITLE "6:cjc129_2311"
    INDEX 01 00:10:12
  TRACK 09 AUDIO
    TITLE "0:"
    INDEX 01 00:15:40
  TRACK 10 AUDIO
    TITLE "3:cjc129_2312"
    INDEX 01 00:17:16
  TRACK 11 AUDIO
    TITLE "0:"
    INDEX 01 00:18:35
  TRACK 12 AUDIO
    TITLE "5:cjc129_2313"
    INDEX 01 00:18:68
  TRACK 13 AUDIO
    TITLE "0:"
    INDEX 01 00:23:69
  TRACK 14 AUDIO
    TITLE "4:cjc129_2314"
    INDEX 01 00:24:59
  TRACK 15 AUDIO
    TITLE "0:"
    INDEX 01 00:26:03
  TRACK 16 AUDIO
    TITLE "6:cjc129_2315"
    INDEX 01 00:26:36
  TRACK 17 AUDIO
    TITLE "0:"
    INDEX 01 00:30:55
  TRACK 18 AUDIO
    TITLE "3:cjc129_2316"
    INDEX 01 00:32:31
  TRACK 19 AUDIO
    TITLE "0:"
    INDEX 01 00:33:54
  TRACK 20 AUDIO
    TITLE "5:cjc129_2317"
    INDEX 01 00:34:10
  TRACK 21 AUDIO
    TITLE "0:"
    INDEX 01 00:36:23
  TRACK 22 AUDIO
    TITLE "4:cjc129_2318"
    INDEX 01 00:37:16
  TRACK 23 AUDIO
    TITLE "0:"
    INDEX 01 00:38:39
  TRACK 24 AUDIO
    TITLE "6:cjc129_2319"
    INDEX 01 00:38:71
  TRACK 25 AUDIO
    TITLE "0:"
    INDEX 01 00:43:54
  TRACK 26 AUDIO
    TITLE "2:cjc129_2320"
    INDEX 01 00:45:32
  TRACK 27 AUDIO
    TITLE "0:"
    INDEX 01 00:49:33
  TRACK 28 AUDIO
    TITLE "3:cjc129_2321"
    INDEX 01 00:50:48
  TRACK 29 AUDIO
    TITLE "0:"
    INDEX 01 00:51:56
  TRACK 30 AUDIO
    TITLE "5:cjc129_2322"
    INDEX 01 00:52:16
  TRACK 31 AUDIO
    TITLE "0:"
    INDEX 01 00:54:38
  TRACK 32 AUDIO
    TITLE "4:cjc129_2323"
    INDEX 01 00:55:28
  TRACK 33 AUDIO
    TITLE "0:"
    INDEX 01 00:56:39
  TRACK 34 AUDIO
    TITLE "6:cjc129_2324"
    INDEX 01 00:56:71
  TRACK 35 AUDIO
    TITLE "0:"
    INDEX 01 01:01:15
  TRACK 36 AUDIO
    TITLE "3:cjc129_2325"
    INDEX 01 01:02:65
  TRACK 37 AUDIO
    TITLE "0:"
    INDEX 01 01:04:00
  TRACK 38 AUDIO
    TITLE "5:cjc129_2326"
    INDEX 01 01:04:33
  TRACK 39 AUDIO
    TITLE "0:"
    INDEX 01 01:06:47
  TRACK 40 AUDIO
    TITLE "4:cjc129_2327"
    INDEX 01 01:07:37
  TRACK 41 AUDIO
    TITLE "0:"
    INDEX 01 01:08:46
  TRACK 42 AUDIO
    TITLE "6:cjc129_2328"
    INDEX 01 01:09:05
  TRACK 43 AUDIO
    TITLE "0:"
    INDEX 01 01:14:59
  TRACK 44 AUDIO
    TITLE "3:cjc129_2329"
    INDEX 01 01:16:34
  TRACK 45 AUDIO
    TITLE "0:"
    INDEX 01 01:17:51
  TRACK 46 AUDIO
    TITLE "5:cjc129_2330"
    INDEX 01 01:18:07
  TRACK 47 AUDIO
    TITLE "0:"
    INDEX 01 01:22:42
  TRACK 48 AUDIO
    TITLE "4:cjc129_2331"
    INDEX 01 01:23:32
  TRACK 49 AUDIO
    TITLE "0:"
    INDEX 01 01:24:47
  TRACK 50 AUDIO
    TITLE "6:cjc129_2332"
    INDEX 01 01:25:04
  TRACK 51 AUDIO
    TITLE "0:"
    INDEX 01 01:31:18
  TRACK 52 AUDIO
    TITLE "3:cjc129_2333"
    INDEX 01 01:32:70
  TRACK 53 AUDIO
    TITLE "0:"
    INDEX 01 01:34:36
  TRACK 54 AUDIO
    TITLE "5:cjc129_2334"
    INDEX 01 01:34:65
  TRACK 55 AUDIO
    TITLE "0:"
    INDEX 01 01:40:42
  TRACK 56 AUDIO
    TITLE "4:cjc129_2335"
    INDEX 01 01:41:32
  TRACK 57 AUDIO
    TITLE "0:"
    INDEX 01 01:42:71
  TRACK 58 AUDIO
    TITLE "6:cjc129_2336"
    INDEX 01 01:43:27
  TRACK 59 AUDIO
    TITLE "0:"
    INDEX 01 01:47:68
